<svg width="200" height="200" version="1.1" xmlns="http://www.w3.org/2000/svg">
    <!-- <path d="M10 10 Q 15 5,20 10 S 25 5,30 10 S 7 50,28 13 L 20 30 S 7.8 18,10 10 L 10 10 " fill="red"/> -->
      <defs>
    <linearGradient id="myGradient">
      <stop offset="7%" stop-color="gold" />
      <stop offset="93%" stop-color="red" />
    </linearGradient>
  </defs>
    <path d="M 29.5 19.4 Q 0 15, 29.5 10  S 45 0, 60 10 L 45 10 S 60 20, 70 10 L 60 10 S 70 0, 80 10 L 70 10 S 80 20, 90 10 L 80 10 S 90 0, 100 10 L 90 10 S 100 20, 110 10 L 45 10 L 29.5 19.4" fill="url('#myGradient')"/>
    <circle cx="27" cy="13" r="1" fill="black"/>
    <circle cx="27" cy="17" r="1" fill="black"/>
    <text x="100" y="100">2025</text>
</svg>