<svg width="200" height="200" version="1.1" xmlns="http://www.w3.org/2000/svg">
    <!-- <path d="M10 10 Q 15 5,20 10 S 25 5,30 10 S 7 50,28 13 L 20 30 S 7.8 18,10 10 L 10 10 " fill="red"/> -->
    <path d="M 30 19.5 Q 0 15, 30 10  S 45 0, 60 10 L 45 10 S 60 20, 70 10 L 60 10 S 70 0, 80 10 L 70 10 S 80 20, 90 10 L 80 10 S 90 0, 100 10 L 90 10 S 100 20, 110 10 L 30 10" fill="green"/>
    <path d="M 29 19 Q 40 15, 45 9" stroke="green" fill="green"/>
    <polygon points=" 29 19, 45 10, 30 10 " fill="green"/>
        <circle cx="27" cy="13" r="1" fill="black"/>
        <circle cx="27" cy="17" r="1" fill="black"/>
</svg>